HIERARCHY
ROOT Hips
{
	OFFSET 0.000000 0.000000 0.000000
	CHANNELS 6 Xposition Yposition Zposition Xrotation Yrotation Zrotation
	JOINT Chest
	{
		OFFSET 0.000000 0.009282 11.569106
		CHANNELS 3 Xrotation Yrotation Zrotation
		JOINT Chest2
		{
			OFFSET 0.000000 -0.016863 9.269641
			CHANNELS 3 Xrotation Yrotation Zrotation
			JOINT Chest3
			{
				OFFSET 0.000000 -0.000000 8.374491
				CHANNELS 3 Xrotation Yrotation Zrotation
				JOINT Chest4
				{
					OFFSET 0.000000 -0.000000 8.374493
					CHANNELS 3 Xrotation Yrotation Zrotation
					JOINT Neck
					{
						OFFSET 0.000000 -0.000001 12.152554
						CHANNELS 3 Xrotation Yrotation Zrotation
						JOINT Head
						{
							OFFSET 0.000000 -0.040100 7.802319
							CHANNELS 3 Xrotation Yrotation Zrotation
							End Site
							{
								OFFSET 0.000000 -0.020946 14.853096
							}
						}
					}
					JOINT RightCollar
					{
						OFFSET -2.894404 -0.000000 6.791374
						CHANNELS 3 Xrotation Yrotation Zrotation
						JOINT RightShoulder
						{
							OFFSET -13.574684 0.000000 0.000000
							CHANNELS 3 Xrotation Yrotation Zrotation
							JOINT RightElbow
							{
								OFFSET -23.923903 0.000000 0.000000
								CHANNELS 3 Xrotation Yrotation Zrotation
								JOINT RightWrist
								{
									OFFSET -19.846718 -0.012765 0.000000
									CHANNELS 3 Xrotation Yrotation Zrotation
									End Site
									{
										OFFSET -14.973145 0.000000 0.000000
									}
								}
							}
						}
					}
					JOINT LeftCollar
					{
						OFFSET 2.894404 -0.000000 6.791374
						CHANNELS 3 Xrotation Yrotation Zrotation
						JOINT LeftShoulder
						{
							OFFSET 13.574684 0.000000 0.000000
							CHANNELS 3 Xrotation Yrotation Zrotation
							JOINT LeftElbow
							{
								OFFSET 23.923903 0.000000 0.000000
								CHANNELS 3 Xrotation Yrotation Zrotation
								JOINT LeftWrist
								{
									OFFSET 19.846718 -0.012765 0.000000
									CHANNELS 3 Xrotation Yrotation Zrotation
									End Site
									{
										OFFSET 14.973145 0.000000 0.000000
									}
								}
							}
						}
					}
				}
			}
		}
	}
	JOINT RightHip
	{
		OFFSET -9.469263 -0.004642 0.045487
		CHANNELS 3 Xrotation Yrotation Zrotation
		JOINT RightKnee
		{
			OFFSET 0.000000 -0.002666 -40.478676
			CHANNELS 3 Xrotation Yrotation Zrotation
			JOINT RightAnkle
			{
				OFFSET 0.000000 -0.049110 -35.224068
				CHANNELS 3 Xrotation Yrotation Zrotation
				JOINT RightToe
				{
					OFFSET 0.000000 -12.539530 -6.151390
					CHANNELS 3 Xrotation Yrotation Zrotation
					End Site
					{
						OFFSET 0.000000 -5.044995 -1.291870
					}
				}
			}
		}
	}
	JOINT LeftHip
	{
		OFFSET 9.469263 -0.004642 0.045487
		CHANNELS 3 Xrotation Yrotation Zrotation
		JOINT LeftKnee
		{
			OFFSET 0.000000 -0.002666 -40.478676
			CHANNELS 3 Xrotation Yrotation Zrotation
			JOINT LeftAnkle
			{
				OFFSET 0.000000 -0.049110 -35.224068
				CHANNELS 3 Xrotation Yrotation Zrotation
				JOINT LeftToe
				{
					OFFSET 0.000000 -12.539530 -6.151390
					CHANNELS 3 Xrotation Yrotation Zrotation
					End Site
					{
						OFFSET 0.000000 -5.044995 -1.291870
					}
				}
			}
		}
	}
}
MOTION
Frames: 15
Frame Time: 0.016667
-64.675789 66.765297 83.229515 -3.119026 1.354347 -133.039873 4.492154 2.893387 4.440278 2.364157 0.615379 0.808770 2.364158 0.615379 0.808768 1.773919 0.458414 0.608962 9.452449 2.883045 1.495951 -18.723061 4.517223 3.998072 -8.810041 -10.205430 -1.133009 17.054836 -40.651179 -8.302168 68.391429 19.685246 66.514131 -53.319872 43.325393 80.463173 -4.780782 8.275565 -2.898824 15.916132 41.268887 10.481895 60.916818 -12.720682 -61.788767 -23.873207 -29.759206 -84.146537 -7.691026 0.200738 -15.842011 2.899878 -5.048816 -11.626824 -0.732738 2.923791 1.326444 0.700699 -0.418782 0.973751 -5.500239 3.061371 10.616043 35.158713 3.903270 18.236375 38.965177 -9.083757 0.808004 -70.708304 9.245235 6.870186 
-64.176147 66.257668 83.158218 -3.135666 0.898169 -132.003077 4.411626 2.524838 3.423278 2.402522 0.646530 0.837495 2.402522 0.646531 0.837498 1.802762 0.481615 0.630668 9.166209 2.838809 1.492676 -19.252437 4.430302 3.981290 -8.711271 -10.200628 -1.124891 17.128071 -40.859725 -7.979704 68.511100 19.783868 66.153019 -53.870877 43.400125 80.963833 -4.785189 8.222644 -2.858822 15.794724 41.277575 10.510703 60.856651 -12.825094 -61.781861 -23.822194 -29.787828 -84.213405 -8.592722 0.186578 -16.931624 3.209866 -5.044691 -11.791468 -0.109569 2.909524 1.712728 0.300445 -0.316317 0.635156 -5.857959 2.642406 9.246153 35.613364 3.786885 17.854377 38.891599 -6.370435 -1.227483 -70.657023 6.629169 4.844222 
-63.702652 65.769173 83.066742 -2.840828 0.677114 -131.124865 4.671682 2.093916 2.566243 2.435774 0.681220 0.868738 2.435772 0.681219 0.868739 1.827782 0.507462 0.654271 8.925099 2.781642 1.494252 -19.697219 4.319371 3.965462 -8.515015 -10.178898 -1.121537 17.135691 -41.089899 -7.663449 68.595549 19.771186 65.843932 -54.338806 43.443866 81.390761 -4.721945 8.155260 -2.867825 15.603456 41.278317 10.542466 60.812951 -12.919141 -61.793083 -23.795075 -29.802383 -84.282827 -9.095065 0.097403 -18.082653 3.500657 -5.027703 -11.692371 0.477688 2.894180 2.037877 -0.037734 -0.198698 0.320944 -5.865480 2.179240 7.831710 36.006746 3.797210 17.591734 37.809783 -4.463612 -2.647344 -69.635650 4.874396 3.404145 
-63.323486 65.301437 82.969910 -2.525928 0.683272 -130.647667 5.052267 1.816731 2.080699 2.457918 0.708077 0.897329 2.457918 0.708077 0.897334 1.844460 0.527459 0.675849 8.747219 2.727045 1.513108 -20.024769 4.207111 3.979567 -8.338649 -10.152109 -1.083394 17.150549 -41.292155 -7.441102 68.626503 19.712336 65.600688 -54.692900 43.479594 81.717503 -4.630885 8.126884 -2.876239 15.445540 41.243175 10.545614 60.737676 -12.994638 -61.839078 -23.721911 -29.817792 -84.301118 -9.352441 0.098206 -18.900325 3.724445 -5.022566 -11.549935 0.830957 2.879721 2.336499 -0.121140 -0.093003 0.099937 -5.668593 1.822010 6.820918 36.322359 3.795063 17.503437 35.791626 -3.362193 -2.908971 -67.713334 4.607806 3.055334 
-63.024113 64.858101 82.874954 -2.327891 0.718727 -130.498086 5.329980 1.678166 1.905059 2.467127 0.726513 0.922003 2.467128 0.726513 0.922006 1.851421 0.541174 0.694443 8.634910 2.677079 1.548034 -20.230838 4.097741 4.022511 -8.263550 -10.130615 -1.045472 17.194144 -41.456902 -7.332223 68.627104 19.640084 65.427516 -54.896378 43.495533 81.918277 -4.581720 8.117039 -2.872142 15.385071 41.192229 10.516129 60.640687 -13.069482 -61.898746 -23.627284 -29.832169 -84.263935 -9.568970 0.148793 -19.345789 3.836323 -5.036194 -11.448596 1.084205 2.876872 2.561099 -0.084476 -0.010517 -0.023925 -5.424252 1.554548 6.255443 36.454714 3.592665 17.557175 33.216207 -3.086290 -2.551774 -65.211853 5.437024 3.463619 
-62.789204 64.468697 82.784790 -2.180923 0.724533 -130.412558 5.505895 1.576494 1.793572 2.461798 0.735816 0.943704 2.461797 0.735815 0.943708 1.847464 0.548073 0.710746 8.593817 2.635580 1.592660 -20.305080 4.001269 4.084594 -8.250053 -10.122719 -1.016261 17.179507 -41.561530 -7.359210 68.634126 19.577849 65.330479 -54.976186 43.514483 82.019842 -4.594438 8.117606 -2.867351 15.399145 41.147969 10.483103 60.561737 -13.126672 -61.935664 -23.505251 -29.833665 -84.200011 -9.741377 0.182839 -19.662089 3.827629 -5.052021 -11.386776 1.370349 2.862613 2.731419 -0.063008 0.067581 -0.102702 -5.098758 1.312346 5.828760 36.343785 3.142651 17.650396 30.840879 -3.271831 -2.198619 -62.817701 6.625308 4.054404 
-62.617634 64.118340 82.701820 -2.081148 0.747786 -130.381058 5.625889 1.534543 1.733226 2.444567 0.736831 0.957451 2.444567 0.736830 0.957451 1.834559 0.548805 0.721043 8.613713 2.604943 1.652295 -20.266631 3.919300 4.176942 -8.285475 -10.113383 -1.019971 17.124765 -41.618460 -7.459091 68.668700 19.533590 65.291554 -54.966846 43.526296 82.036364 -4.646419 8.125264 -2.857488 15.425251 41.117175 10.465619 60.542326 -13.165909 -61.938129 -23.422699 -29.819629 -84.149761 -9.870882 0.244292 -19.848169 3.747176 -5.061306 -11.325348 1.649869 2.810295 2.790851 -0.022420 0.146878 -0.145242 -4.679642 1.145357 5.418343 36.051364 2.594069 17.726948 28.727260 -4.006162 -1.847086 -60.691511 8.101377 4.728195 
-62.480503 63.799229 82.626175 -1.992037 0.738391 -130.417422 5.679818 1.483094 1.732232 2.414633 0.732037 0.963358 2.414632 0.732036 0.963359 1.812108 0.545234 0.725414 8.687057 2.583535 1.727102 -20.129385 3.848707 4.299400 -8.327427 -10.105582 -1.035174 17.028433 -41.631185 -7.590566 68.711826 19.488746 65.287627 -54.891375 43.521125 81.997562 -4.690662 8.137505 -2.838464 15.419441 41.095667 10.468769 60.593559 -13.155424 -61.912304 -23.393365 -29.787305 -84.139044 -9.988845 0.274806 -19.915653 3.613648 -5.067829 -11.274444 1.943778 2.714373 2.796853 0.014390 0.234297 -0.158754 -4.211021 1.031456 4.955358 35.740321 2.109660 17.577249 26.640849 -5.134415 -1.060713 -58.742359 9.968773 5.525848 
-62.357296 63.503090 82.555397 -1.862241 0.663801 -130.505094 5.676378 1.354262 1.775831 2.371160 0.723346 0.961388 2.371161 0.723346 0.961391 1.779491 0.538792 0.723857 8.804128 2.567445 1.819006 -19.911156 3.781435 4.453955 -8.372302 -10.096284 -1.068195 16.954367 -41.631109 -7.700082 68.764036 19.473486 65.274083 -54.851630 43.503616 81.985459 -4.717691 8.160205 -2.804565 15.424457 41.083315 10.493309 60.664483 -13.116043 -61.881452 -23.396687 -29.756730 -84.145198 -10.122315 0.216904 -19.926095 3.465573 -5.049297 -11.309122 2.299430 2.553957 2.887200 -0.005691 0.344869 -0.182210 -3.710927 0.937244 4.401942 35.519514 1.727279 17.062752 24.548031 -6.407212 0.532634 -56.932287 12.288339 6.495070 
-62.227928 63.195683 82.487495 -1.794321 0.547202 -130.646547 5.574520 1.246299 1.857067 2.321276 0.713208 0.956823 2.321275 0.713209 0.956829 1.742056 0.531283 0.720334 8.951051 2.549697 1.918104 -19.637246 3.709222 4.620014 -8.389596 -10.082502 -1.108796 16.892501 -41.656241 -7.784449 68.817066 19.492784 65.239132 -54.842864 43.482347 81.995724 -4.712165 8.184837 -2.784959 15.427652 41.068503 10.542669 60.710321 -13.086668 -61.868933 -23.391180 -29.720817 -84.118499 -10.326677 0.151306 -19.825758 3.278361 -5.004413 -11.411889 2.670853 2.362179 2.983437 -0.011700 0.451215 -0.178963 -3.208519 0.955481 3.812255 35.261627 1.391269 16.384779 22.628987 -7.969389 2.543117 -55.317709 14.890434 7.625991 
-62.088436 62.851685 82.420609 -1.867538 0.438344 -130.768097 5.379452 1.245170 1.896904 2.270277 0.699704 0.953075 2.270276 0.699706 0.953076 1.703783 0.521249 0.717409 9.108530 2.534757 2.017553 -19.343763 3.642651 4.787891 -8.385405 -10.069909 -1.154514 16.825823 -41.669584 -7.863506 68.860342 19.523317 65.217037 -54.842553 43.447936 82.008613 -4.717043 8.203349 -2.768444 15.440326 41.067055 10.598226 60.738796 -13.063982 -61.869500 -23.332254 -29.692635 -84.028553 -10.627453 0.191432 -19.660776 3.066340 -4.955636 -11.591805 2.986572 2.168683 3.045588 0.060961 0.536595 -0.129533 -2.725257 1.126573 3.140776 34.812125 1.019642 15.883337 21.184255 -9.644546 4.212289 -54.050347 17.294795 8.734063 
-61.934662 62.467678 82.353737 -2.038219 0.358359 -130.893404 5.140731 1.329277 1.923946 2.224166 0.685425 0.951305 2.224166 0.685424 0.951303 1.669176 0.510616 0.715977 9.266262 2.524307 2.110570 -19.049963 3.587480 4.946387 -8.396784 -10.067974 -1.190908 16.764663 -41.651265 -7.961104 68.887922 19.542372 65.228505 -54.844298 43.421230 82.020053 -4.731353 8.210832 -2.743385 15.425992 41.070307 10.645029 60.774047 -13.038997 -61.879745 -23.216003 -29.665182 -83.891512 -10.987544 0.331094 -19.441749 2.840117 -4.906500 -11.772973 3.298105 1.957089 3.061219 0.169164 0.611692 -0.073544 -2.247671 1.389869 2.378434 34.145068 0.641661 15.685507 20.216684 -11.248191 5.245761 -53.125539 19.241698 9.635765 
-61.764713 62.067699 82.284683 -2.153466 0.320622 -131.043231 4.966518 1.394892 1.968132 2.186977 0.669855 0.951699 2.186977 0.669856 0.951701 1.641263 0.498995 0.716174 9.416409 2.517433 2.196196 -18.770395 3.542151 5.093536 -8.399177 -10.058781 -1.223363 16.713898 -41.615902 -8.029601 68.907156 19.544605 65.259944 -54.856944 43.398435 82.037054 -4.748063 8.218849 -2.737019 15.361114 41.070122 10.709777 60.828230 -13.014069 -61.889239 -23.080258 -29.655749 -83.764497 -11.300113 0.460268 -19.234706 2.614330 -4.864982 -11.904163 3.696378 1.747922 3.065266 0.211752 0.677726 -0.034164 -1.706688 1.636085 1.573933 33.356339 0.277395 15.659003 19.532181 -12.554144 5.647046 -52.417884 20.543423 10.165677 
-61.569031 61.652573 82.210434 -2.191174 0.308891 -131.195284 4.864357 1.411973 2.003407 2.157302 0.654106 0.955073 2.157303 0.654105 0.955073 1.618987 0.487216 0.718616 9.558143 2.512406 2.279061 -18.506490 3.501393 5.236873 -8.364129 -10.025570 -1.255731 16.670045 -41.585286 -8.029667 68.923726 19.508999 65.303002 -54.877169 43.378176 82.062735 -4.750155 8.221901 -2.740898 15.284440 41.067735 10.752849 60.886861 -12.994379 -61.909306 -22.979085 -29.660827 -83.652380 -11.585643 0.548204 -19.100745 2.411019 -4.803634 -11.960999 4.140412 1.540875 3.114821 0.236147 0.728246 -0.014724 -1.122718 1.862600 0.768257 32.558269 -0.040577 15.516197 18.913093 -13.403967 5.755530 -51.730651 21.199620 10.316298 
-61.342293 61.212948 82.129852 -2.196361 0.298423 -131.367979 4.791903 1.405067 2.051011 2.131202 0.640148 0.961052 2.131202 0.640147 0.961050 1.599396 0.476767 0.723026 9.693694 2.502414 2.360883 -18.253691 3.452204 5.376348 -8.332133 -9.992206 -1.284997 16.699918 -41.549861 -7.951488 68.909744 19.447031 65.341408 -54.928012 43.369799 82.112671 -4.749169 8.212006 -2.738146 15.275081 41.063476 10.704839 60.928860 -12.964354 -61.926095 -22.914467 -29.659939 -83.557666 -11.885045 0.607207 -19.016068 2.220215 -4.737485 -11.905935 4.628202 1.350575 3.134856 0.244407 0.763225 -0.000057 -0.541965 2.099361 0.061955 31.754622 -0.304423 15.091545 18.268871 -13.924928 5.855486 -50.939114 21.411562 10.222416 
